HIERARCHY
ROOT Hips
{
	OFFSET 0.00000 0.00000 0.00000
	CHANNELS 6 Xposition Yposition Zposition Zrotation Yrotation Xrotation 
	JOINT LHipJoint
	{
		OFFSET 0 0 0
		CHANNELS 3 Zrotation Yrotation Xrotation
		JOINT LeftHip
		{
			OFFSET 1.58161 -1.81893 0.78828
			CHANNELS 3 Zrotation Yrotation Xrotation
			JOINT LeftKnee
			{
				OFFSET 2.53374 -6.96141 0.00000
				CHANNELS 3 Zrotation Yrotation Xrotation
				JOINT LeftAnkle
				{
					OFFSET 2.63509 -7.23986 0.00000
					CHANNELS 3 Zrotation Yrotation Xrotation
					JOINT LeftToe
					{
						OFFSET 0.14115 -0.38781 2.05350
						CHANNELS 3 Zrotation Yrotation Xrotation
						End Site
						{
							OFFSET 0.00000 -0.00000 1.05543
						}
					}
				}
			}
		}
	}
	JOINT RHipJoint
	{
		OFFSET 0 0 0
		CHANNELS 3 Zrotation Yrotation Xrotation
		JOINT RightHip
		{
			OFFSET -1.11138 -1.81893 0.78828
			CHANNELS 3 Zrotation Yrotation Xrotation
			JOINT RightKnee
			{
				OFFSET -2.58392 -7.09926 0.00000
				CHANNELS 3 Zrotation Yrotation Xrotation
				JOINT RightAnkle
				{
					OFFSET -2.66423 -7.31992 0.00000
					CHANNELS 3 Zrotation Yrotation Xrotation
					JOINT RightToe
					{
						OFFSET -0.18831 -0.51739 2.12114
						CHANNELS 3 Zrotation Yrotation Xrotation
						End Site
						{
							OFFSET -0.00000 -0.00000 1.09845
						}
					}
				}
			}
		}
	}
	JOINT lowerback
	{
		OFFSET 0 0 0
		CHANNELS 3 Zrotation Yrotation Xrotation
		JOINT Chest
		{
			OFFSET -0.01511 1.97958 -0.08829
			CHANNELS 3 Zrotation Yrotation Xrotation
			JOINT Chest2
			{
				OFFSET 0.08344 1.97334 -0.04330
				CHANNELS 3 Zrotation Yrotation Xrotation
				JOINT lowerneck
				{
					OFFSET 0 0 0
					CHANNELS 3 Zrotation Yrotation Xrotation
					JOINT Neck
					{
						OFFSET 0.00559 1.76246 0.31246
						CHANNELS 3 Zrotation Yrotation Xrotation
						JOINT Head
						{
							OFFSET -0.07011 1.80354 -0.30524
							CHANNELS 3 Zrotation Yrotation Xrotation
							End Site
							{
								OFFSET -0.02385 1.83547 -0.13906
							}
						}
					}
				}
				JOINT LeftCollar
				{
					OFFSET 0 0 0
					CHANNELS 3 Zrotation Yrotation Xrotation
					JOINT LeftShoulder
					{
						OFFSET 3.20667 1.30156 -0.60240
CHANNELS 3 Zrotation Xrotation Yrotation
						JOINT LeftElbow
						{
OFFSET 0 -4.956630 0.000000
CHANNELS 3 Zrotation Xrotation Yrotation
							JOINT LeftWrist
							{
OFFSET 0 -3.381770 0.000000
CHANNELS 3 Zrotation Xrotation Yrotation
								JOINT lhand
								{
									OFFSET 0 0 0
CHANNELS 3 Zrotation Xrotation Yrotation
									JOINT LFingers
									{
OFFSET 0 -0.662910 0.000000
CHANNELS 3 Zrotation Xrotation Yrotation
										End Site
										{
OFFSET 0 -0.534450 0.000000
										}
									}
								}
								JOINT LThumb
								{
OFFSET 0 0.000000 0.000000
CHANNELS 3 Zrotation Xrotation Yrotation
									End Site
									{
OFFSET 0 -0.542610 0.542610
									}
								}
							}
						}
					}
				}
				JOINT RightCollar
				{
					OFFSET 0 0 0
					CHANNELS 3 Zrotation Yrotation Xrotation
					JOINT RightShoulder
					{
						OFFSET -3.06877 1.34672 -0.60964
CHANNELS 3 Zrotation Xrotation Yrotation
						JOINT RightElbow
						{
OFFSET 0 -5.083650 0.000000
CHANNELS 3 Zrotation Xrotation Yrotation
							JOINT RightWrist
							{
OFFSET 0 -3.359840 0.000000
CHANNELS 3 Zrotation Xrotation Yrotation
								JOINT rhand
								{
									OFFSET 0 0 0
CHANNELS 3 Zrotation Xrotation Yrotation
									JOINT RFingers
									{
OFFSET 0 -0.820760 0.000000
CHANNELS 3 Zrotation Xrotation Yrotation
										End Site
										{
OFFSET 0 -0.661720 0.000000
										}
									}
								}
								JOINT RThumb
								{
OFFSET 0 0.000000 0.000000
CHANNELS 3 Zrotation Xrotation Yrotation
									End Site
									{
OFFSET 0 -0.671820 0.671820
									}
								}
							}
						}
					}
				}
			}
		}
	}
}
MOTION
Frames: 6
Frame Time: 0.008333333333333333
-5.807059 17.700073 3.276470 -8.686069 36.866554 2.207202 0.000000 0.000000 0.000000 6.115693 19.609853 -7.111182 3.586014 11.588110 34.289959 -0.974647 18.108812 -0.553563 1.622855 -8.018282 -22.777321 0.000000 0.000000 0.000000 24.690146 29.186438 -21.023223 -3.220853 -11.044180 32.429057 2.019731 24.530245 5.023576 -3.248556 -11.086916 32.573545 -15.736821 -10.261363 1.308902 -4.552594 -13.854217 -1.579372 3.520032 -6.701290 0.078963 0.576411 22.229877 -5.432228 -13.392782 32.717394 14.028342 -1.139841 14.711027 7.625213 0.000000 0.000000 0.000000 260.419965 -45.401520 -179.729542 19.911764 -30.535713 5.486547 19.237410 -1.530613 -1.312708 0.000000 0.000000 0.000000 -7.125000 0.000000 0.000000 9.632103 -58.607263 -176.777302 0.000000 0.000000 0.000000 -48.927250 -46.365442 -18.824526 -124.228064 -55.073425 -89.151974 -61.697351 -20.036499 -11.284207 0.000000 0.000000 0.000000 7.125000 0.000000 0.000000 -22.173305 8.407943 -20.321399
-5.805982 17.699271 3.292543 -8.560672 36.595899 2.316743 0.000000 0.000000 0.000000 6.084565 19.667155 -6.968778 3.580254 11.579877 34.261483 -1.036225 18.342303 -1.622386 1.079678 -6.510746 -18.308022 0.000000 0.000000 0.000000 24.673890 29.299890 -21.002684 -3.234718 -11.065612 32.501532 2.044640 24.652724 5.159715 -3.272380 -11.123350 32.697155 -15.647843 -10.300164 1.306579 -4.556528 -13.910108 -1.614826 3.473808 -6.726040 0.030744 0.404763 22.262636 -5.740457 -13.452793 32.801781 14.020142 -1.094023 14.718047 7.663990 0.000000 0.000000 0.000000 259.205244 -45.193267 45.711109 20.075303 -30.732778 5.569842 19.841172 -2.035336 -0.905717 0.000000 0.000000 0.000000 -7.125000 0.000000 0.000000 8.940725 -59.033857 -176.921333 0.000000 0.000000 0.000000 -50.886773 -46.532090 -20.228573 -124.575411 -54.961782 -89.436604 -61.517192 -19.073078 -10.991403 0.000000 0.000000 0.000000 7.125000 0.000000 0.000000 -22.169086 9.018846 -20.023339
-5.804697 17.699321 3.307778 -8.447140 36.341133 2.393749 0.000000 0.000000 0.000000 6.064863 19.693361 -6.799506 3.574571 11.571709 34.233293 -1.060754 18.473615 -1.904289 0.814019 -5.757033 -16.081211 0.000000 0.000000 0.000000 24.674944 29.421968 -20.938742 -3.246661 -11.084014 32.563799 2.064605 24.755912 5.233337 -3.286112 -11.144318 32.768297 -15.521199 -10.222560 1.291673 -4.718343 -13.813191 -1.686101 3.269272 -6.666286 -0.121388 0.822717 22.173065 -5.546961 -13.575429 32.674665 14.050999 -1.191054 14.673895 7.718718 0.000000 0.000000 0.000000 258.551191 -44.703252 178.428959 20.243235 -30.933962 5.655944 20.286080 -2.597551 -0.515435 0.000000 0.000000 0.000000 -7.125000 0.000000 0.000000 8.449226 -59.445599 -177.007218 0.000000 0.000000 0.000000 -52.557311 -46.204533 -21.647232 -124.913365 -54.851425 -89.713128 -61.397743 -18.254799 -10.765083 0.000000 0.000000 0.000000 7.125000 0.000000 0.000000 -22.176603 9.479120 -19.809367
-5.802994 17.700473 3.322634 -8.328368 36.095054 2.470332 0.000000 0.000000 0.000000 6.030894 19.707723 -6.634448 3.568418 11.562815 34.202562 -1.039186 18.495456 -1.185474 0.924309 -6.084271 -17.042625 0.000000 0.000000 0.000000 24.667530 29.582095 -20.846115 -3.256109 -11.098504 32.612847 2.077470 24.829706 5.232072 -3.279541 -11.134225 32.734085 -15.388302 -10.066065 1.244686 -4.986979 -13.608168 -1.785213 2.962838 -6.547202 -0.331487 1.587470 22.012802 -4.962171 -13.710587 32.392456 14.013926 -1.387195 14.602170 7.729925 0.000000 0.000000 0.000000 258.308894 -44.016529 178.067782 20.419910 -31.144819 5.746951 20.602351 -3.169930 -0.149933 0.000000 0.000000 0.000000 -7.125000 0.000000 0.000000 8.115971 -59.833676 -177.050687 0.000000 0.000000 0.000000 -54.022634 -45.528046 -23.072993 -125.225538 -54.748521 -89.968315 -61.347911 -17.675474 -10.660773 0.000000 0.000000 0.000000 7.125000 0.000000 0.000000 -22.182979 9.688031 -19.714652
-5.800736 17.703109 3.338973 -8.172287 35.827541 2.626413 0.000000 0.000000 0.000000 5.935649 19.764644 -6.536719 3.559609 11.550090 34.158366 -0.964496 18.398329 0.475019 1.429369 -7.531762 -21.313347 0.000000 0.000000 0.000000 24.599767 29.853222 -20.769920 -3.262283 -11.107991 32.644846 2.076190 24.834751 5.154521 -3.237453 -11.069775 32.515737 -15.402231 -10.131569 1.148839 -4.943987 -13.677587 -1.800873 2.988663 -6.585074 -0.270727 1.087304 22.143660 -5.173592 -13.601940 32.520829 13.713962 -1.300308 14.664361 7.578061 0.000000 0.000000 0.000000 257.152406 -43.852994 177.129491 20.551370 -31.300824 5.815166 20.983480 -3.513639 0.253558 0.000000 0.000000 0.000000 -7.125000 0.000000 0.000000 7.695992 -60.264498 -177.125227 0.000000 0.000000 0.000000 -55.948757 -45.689774 -24.409805 -125.320407 -54.716898 -90.045790 -61.397529 -17.458181 -10.729665 0.000000 0.000000 0.000000 7.125000 0.000000 0.000000 -22.187873 9.541211 -19.791225
-5.798220 17.706385 3.355375 -8.087557 35.549323 2.786404 0.000000 0.000000 0.000000 5.889126 19.831694 -6.489762 3.546697 11.531404 34.093783 -0.918013 18.386336 1.466301 1.737749 -8.284977 -23.590089 0.000000 0.000000 0.000000 24.569955 30.168711 -20.730842 -3.265380 -11.112734 32.660883 2.071256 24.813447 5.110882 -3.201390 -11.013979 32.327264 -15.321794 -10.152839 0.980487 -4.932792 -13.674758 -1.826855 2.932240 -6.587687 -0.220415 0.785934 22.220988 -5.286608 -13.529835 32.575608 13.452591 -1.256565 14.700845 7.454275 0.000000 0.000000 0.000000 256.166443 -43.639713 176.220113 20.731167 -31.512923 5.908959 21.338069 -3.900620 0.509154 0.000000 0.000000 0.000000 -7.125000 0.000000 0.000000 7.267870 -60.540565 -177.238679 0.000000 0.000000 0.000000 -57.723333 -45.654565 -25.684626 -125.371938 -54.699699 -90.087815 -61.448877 -17.040746 -10.696500 0.000000 0.000000 0.000000 7.125000 0.000000 0.000000 -22.226615 9.571968 -19.817088
